<svg xmlns="http://www.w3.org/2000/svg" width="23" height="23" viewBox="0 0 23 23">
    <path fill="#FFF" fill-rule="evenodd" d="M22.489 19.987l-4.74-4.74c1.142-1.65 1.713-3.489 1.713-5.516a9.56 9.56 0 0 0-.767-3.78 9.727 9.727 0 0 0-2.073-3.11 9.727 9.727 0 0 0-3.11-2.074A9.563 9.563 0 0 0 9.73 0a9.56 9.56 0 0 0-3.78.767 9.727 9.727 0 0 0-3.11 2.074A9.729 9.729 0 0 0 .767 5.95 9.56 9.56 0 0 0 0 9.73c0 1.318.256 2.578.767 3.78a9.727 9.727 0 0 0 2.074 3.11 9.729 9.729 0 0 0 3.11 2.074 9.56 9.56 0 0 0 3.78.767c2.028 0 3.866-.572 5.515-1.714l4.741 4.727c.332.35.746.525 1.244.525a1.7 1.7 0 0 0 1.244-.525A1.7 1.7 0 0 0 23 21.23c0-.488-.17-.903-.511-1.244zm-8.383-5.881c-1.212 1.211-2.67 1.817-4.375 1.817s-3.163-.606-4.375-1.817C4.144 12.894 3.54 11.436 3.54 9.73s.606-3.163 1.817-4.375c1.212-1.212 2.67-1.818 4.375-1.818s3.163.606 4.375 1.818c1.212 1.212 1.818 2.67 1.818 4.375s-.606 3.163-1.818 4.375z"/>
</svg>
